# xmcd
#
# Track frame offsets:
#	150
#	8045
#	28112
#	61050
#	85395
#	97805
#	106575
#	118117
#	124945
#	132472
#	137347
#	184435
#	199525
#	213657
#	228920
#
# Disc length: 3247 seconds
#
# Revision: 0
# Processed by: cddbd v1.5.2PL0 Copyright (c) Steve Scherf et al.
# Submitted via: EasyCDDAExtractor 11.9.9.666
#
DISCID=c80cad0f
DTITLE=Yrjö Jyrinkoski - Eino Leinon Toiverunot
DYEAR=1900
DGENRE=Speech
TTITLE0=Legenda
TTITLE1=Aleksis Kivi
TTITLE2=Päivän poika
TTITLE3=Kevätlaulu
TTITLE4=Mies mieheltä
TTITLE5=Kansa kalliolla
TTITLE6=Tottumus
TTITLE7=Laulajapoika
TTITLE8=Hymni tulelle
TTITLE9=Vaalin valta
TTITLE10=Aurinkolaulu (Osa runoelmasta Hymyilevä Apollo)
TTITLE11=Virta venhettä vie
TTITLE12=Elegia
TTITLE13=Rauhattoman rukous
TTITLE14=Oi varjele Herra mun järkeäin
EXTD=
EXTT0=
EXTT1=
EXTT2=
EXTT3=
EXTT4=
EXTT5=
EXTT6=
EXTT7=
EXTT8=
EXTT9=
EXTT10=
EXTT11=
EXTT12=
EXTT13=
EXTT14=
PLAYORDER=
